<?xml version="1.0" standalone="no"?><!DOCTYPE svg PUBLIC "-//W3C//DTD SVG 1.1//EN" "http://www.w3.org/Graphics/SVG/1.1/DTD/svg11.dtd"><svg class="icon" width="200px" height="200.00px" viewBox="0 0 1024 1024" version="1.1" xmlns="http://www.w3.org/2000/svg"><path fill="#333333" d="M825.869732 355.065134v-8.631418a39.233716 39.233716 0 0 0-29.817625-38.056705l-113.581609-28.444444a702.675862 702.675862 0 0 0-340.940996 0l-113.777778 28.444444a39.233716 39.233716 0 0 0-29.621456 38.056705v8.631418a104.557854 104.557854 0 0 0-90.041379 51.984674A197.737931 197.737931 0 0 0 80.429119 512c0 75.524904 36.879693 156.934866 117.701149 156.934866v8.631418a39.233716 39.233716 0 0 0 29.621456 38.056705l113.777778 28.444444a702.675862 702.675862 0 0 0 340.940996 0l113.581609-28.444444a39.233716 39.233716 0 0 0 29.817625-38.056705v-8.631418c80.821456 0 117.701149-81.409962 117.701149-156.934866s-36.879693-156.934866-117.701149-156.934866z m-627.739464 274.636015c-53.94636 0-78.467433-61.008429-78.467433-117.701149s24.521073-117.701149 78.467433-117.701149z m588.505747 32.563985a19.616858 19.616858 0 0 1-14.908812 19.616858l-98.084291 24.717242a664.422989 664.422989 0 0 1-322.108812 0l-98.084292-24.717242a19.616858 19.616858 0 0 1-14.908812-19.616858V361.734866a19.616858 19.616858 0 0 1 14.908812-19.616858l98.084292-24.717242a664.422989 664.422989 0 0 1 322.108812 0l98.084291 24.717242a19.616858 19.616858 0 0 1 14.908812 19.616858z m96.122606-66.304981a65.716475 65.716475 0 0 1-56.888889 33.740996v-235.402298c53.94636 0 78.467433 61.008429 78.467433 117.701149a162.427586 162.427586 0 0 1-21.578544 83.960153z" /></svg>