<?xml version="1.0" standalone="no"?><!DOCTYPE svg PUBLIC "-//W3C//DTD SVG 1.1//EN" "http://www.w3.org/Graphics/SVG/1.1/DTD/svg11.dtd"><svg class="icon" width="200px" height="200.00px" viewBox="0 0 1024 1024" version="1.1" xmlns="http://www.w3.org/2000/svg"><path d="M614.4 640h-76.8v-76.8c0-12.8-12.8-25.6-25.6-25.6s-25.6 12.8-25.6 25.6v76.8h-76.8c-12.8 0-25.6 12.8-25.6 25.6s12.8 25.6 25.6 25.6h76.8v76.8c0 12.8 12.8 25.6 25.6 25.6s25.6-12.8 25.6-25.6v-76.8h76.8c12.8 0 25.6-12.8 25.6-25.6s-12.8-25.6-25.6-25.6zM970.24 279.04c-17.92-99.84-215.04-176.64-458.24-176.64s-442.88 79.36-458.24 176.64c0 5.12-2.56 10.24-2.56 15.36v12.8c0 48.64 51.2 89.6 128 89.6s128-40.96 128-89.6c0-2.56 0 0 0 0 0-28.16 102.4-51.2 204.8-51.2s204.8 23.04 204.8 51.2c0 0 0-2.56 0 0 0 48.64 51.2 89.6 128 89.6s128-40.96 128-89.6v-12.8c0-5.12 0-10.24-2.56-15.36z m-48.64 28.16c0 17.92-28.16 38.4-76.8 38.4s-76.8-20.48-76.8-38.4c0-94.72-197.12-102.4-256-102.4s-256 7.68-256 102.4c0 17.92-28.16 38.4-76.8 38.4s-76.8-20.48-76.8-38.4v-12.8V286.72c10.24-56.32 161.28-135.68 409.6-135.68s399.36 79.36 409.6 135.68v20.48zM819.2 509.44c-15.36-58.88-66.56-99.84-128-99.84h-51.2v-76.8c0-12.8-12.8-25.6-25.6-25.6s-25.6 12.8-25.6 25.6v76.8h-153.6v-76.8c0-12.8-12.8-25.6-25.6-25.6s-25.6 12.8-25.6 25.6v76.8h-51.2c-46.08 0-87.04 30.72-99.84 74.24l-99.84 304.64c-20.48 66.56 28.16 133.12 97.28 133.12h563.2c69.12 0 117.76-66.56 97.28-133.12l-71.68-279.04z m15.36 340.48c-10.24 12.8-25.6 20.48-40.96 20.48h-563.2c-15.36 0-30.72-7.68-40.96-20.48-10.24-12.8-12.8-30.72-7.68-46.08l99.84-304.64c7.68-23.04 28.16-38.4 51.2-38.4h358.4c35.84 0 69.12 25.6 79.36 61.44l71.68 279.04v5.12c5.12 12.8 2.56 30.72-7.68 43.52z" /></svg>