<?xml version="1.0" standalone="no"?><!DOCTYPE svg PUBLIC "-//W3C//DTD SVG 1.1//EN" "http://www.w3.org/Graphics/SVG/1.1/DTD/svg11.dtd"><svg class="icon" width="200px" height="200.00px" viewBox="0 0 1024 1024" version="1.1" xmlns="http://www.w3.org/2000/svg"><path fill="#333333" d="M944 1001.6c-3.2-28.8-3.2-54.4-6.4-83.2-25.6-140.8-83.2-262.4-198.4-355.2-12.8-9.6-19.2-12.8-32 3.2-51.2 67.2-102.4 131.2-150.4 198.4-9.6 12.8-12.8 22.4-12.8 35.2v115.2c0 38.4-3.2 44.8-41.6 44.8h-137.6c-83.2 0-80 12.8-76.8-76.8 0-22.4-3.2-32-25.6-41.6-41.6-16-64-64-54.4-105.6 9.6-48 48-80 96-83.2 41.6-3.2 86.4 28.8 99.2 70.4 12.8 44.8-3.2 96-44.8 115.2-35.2 12.8-32 35.2-32 60.8 0 12.8 3.2 19.2 19.2 19.2H480c16 0 19.2-6.4 19.2-19.2v-86.4c0-19.2-3.2-35.2-16-51.2l-144-182.4c-22.4-28.8-25.6-32-54.4-6.4-134.4 108.8-192 252.8-201.6 419.2-3.2 22.4 0 32 32 32 131.2-3.2 265.6 0 396.8 0h409.6c16 0 22.4-3.2 22.4-22.4zM540.8 467.2c105.6-16 169.6-108.8 163.2-217.6 0-16-9.6-12.8-19.2-12.8H384c-70.4 0-76.8 9.6-60.8 80 19.2 96 121.6 166.4 217.6 150.4z"  /><path fill="#333333" d="M512 486.4c-51.2 0-92.8 9.6-137.6 28.8-16 6.4-22.4 9.6-9.6 28.8 48 57.6 92.8 118.4 140.8 179.2 12.8 16 16 12.8 25.6 0 44.8-57.6 92.8-115.2 140.8-169.6 12.8-16 6.4-22.4-6.4-28.8-51.2-28.8-102.4-41.6-153.6-38.4zM355.2 752c0-28.8-22.4-51.2-51.2-51.2-25.6 0-51.2 22.4-51.2 48 0 28.8 22.4 51.2 51.2 51.2 28.8 6.4 51.2-19.2 51.2-48zM342.4 192h342.4c12.8 0 22.4 0 19.2-19.2V54.4c0-32-19.2-54.4-51.2-54.4h-281.6c-32 0-51.2 22.4-51.2 54.4v112c-3.2 22.4 3.2 28.8 22.4 25.6z m115.2-115.2c19.2 3.2 35.2 0 28.8-25.6-3.2-22.4 9.6-22.4 25.6-19.2 16-3.2 25.6 3.2 22.4 22.4-3.2 22.4 6.4 28.8 28.8 25.6 16-3.2 25.6 3.2 22.4 22.4 0 19.2-6.4 25.6-22.4 22.4-22.4-3.2-32 6.4-28.8 28.8 3.2 22.4-9.6 19.2-25.6 19.2s-28.8 0-22.4-22.4c3.2-25.6-9.6-32-28.8-28.8-19.2 3.2-22.4-3.2-22.4-22.4s6.4-25.6 22.4-22.4z"  /></svg>